<?xml version="1.0" encoding="UTF-8" standalone="no"?>
<!-- Created with Inkscape (http://www.inkscape.org/) -->

<svg
   width="1200"
   height="630"
   viewBox="0 0 317.49999 166.6875"
   version="1.1"
   id="svg1"
   xml:space="preserve"
   inkscape:export-filename="social.png"
   inkscape:export-xdpi="96"
   inkscape:export-ydpi="96"
   inkscape:version="1.4.2 (ebf0e940d0, 2025-05-08)"
   sodipodi:docname="social.svg"
   xmlns:inkscape="http://www.inkscape.org/namespaces/inkscape"
   xmlns:sodipodi="http://sodipodi.sourceforge.net/DTD/sodipodi-0.dtd"
   xmlns="http://www.w3.org/2000/svg"
   xmlns:svg="http://www.w3.org/2000/svg"><sodipodi:namedview
     id="namedview1"
     pagecolor="#ffffff"
     bordercolor="#000000"
     borderopacity="0.25"
     inkscape:showpageshadow="2"
     inkscape:pageopacity="0.0"
     inkscape:pagecheckerboard="0"
     inkscape:deskcolor="#d1d1d1"
     inkscape:document-units="px"
     inkscape:zoom="0.80791379"
     inkscape:cx="582.98299"
     inkscape:cy="321.81651"
     inkscape:window-width="2048"
     inkscape:window-height="1041"
     inkscape:window-x="1080"
     inkscape:window-y="0"
     inkscape:window-maximized="1"
     inkscape:current-layer="layer1" /><defs
     id="defs1" /><g
     inkscape:label="Layer 1"
     inkscape:groupmode="layer"
     id="layer1"><rect
       style="fill:#153259;fill-opacity:1;stroke:none;stroke-width:0.176606"
       id="rect1"
       width="317.5"
       height="166.6875"
       x="0"
       y="-1.3125e-06" /><path
       style="fill:#0d6986;fill-opacity:1;fill-rule:evenodd;stroke:#000000;stroke-width:0.0140308mm"
       d="m 51.744307,10.60992 c -0.222384,5.05e-4 -0.444598,0.0039 -0.666904,0.0057 -15.407566,0.118805 -30.623397,3.129513 -41.3258118,8.932963 -0.03363,0.307585 -0.06504,0.623833 -0.09434,0.947116 -0.02862,0.317458 -0.05541,0.642969 -0.07985,0.975099 -0.0034,0.04736 -0.0061,0.09663 -0.0093,0.144311 -0.02147,0.299751 -0.04121,0.604184 -0.05886,0.91532 -0.01968,0.349512 -0.03735,0.706479 -0.0523,1.069935 -1.78e-4,0.0043 -2.8e-4,0.0079 -4.77e-4,0.01217 2.9e-5,8.01e-4 -1.3e-5,0.0015 0,0.0023 C 8.5957692,44.625091 16.0151,88.4717 51.794786,108.38983 c 36.04755,-20.06726 43.9271,-64.422065 43.008497,-85.24245 -3.1e-5,-8.01e-4 2.5e-5,-0.0013 0,-0.0023 -0.0012,-0.02147 -0.0031,-0.04211 -0.0037,-0.0635 -0.01356,-0.301039 -0.02823,-0.598234 -0.04524,-0.889205 -0.0175,-0.298605 -0.03704,-0.593075 -0.05836,-0.88077 -0.0083,-0.111042 -0.01756,-0.217577 -0.02613,-0.326903 -0.01609,-0.198939 -0.03186,-0.399265 -0.04943,-0.592638 -0.02613,-0.287766 -0.05405,-0.569028 -0.08406,-0.843868 -2.006719,-1.088111 -4.172295,-2.078077 -6.467848,-2.969188 -0.765211,-0.297068 -1.544425,-0.582866 -2.33748,-0.8579 -0.79308,-0.275065 -1.599909,-0.539059 -2.41872,-0.792068 -9.007172,-2.783139 -19.508978,-4.231652 -30.101762,-4.313285 -0.355313,-0.0028 -0.710755,-0.0047 -1.066203,-0.0043 -0.133227,-1.36e-4 -0.266597,-0.0016 -0.399796,-0.0016 v 1.65e-4 M 14.245148,32.455816 c 2.958463,6.237082 5.86874,12.474104 8.728728,18.711218 l -2.197824,0.0079 c -0.249783,-5.287755 -2.628318,-7.795998 -5.64542,-9.470966 -0.09037,-0.639447 -0.173618,-1.279438 -0.25218,-1.920355 -0.01324,-0.108396 -0.02576,-0.217078 -0.03875,-0.325508 -0.02862,-0.238254 -0.05956,-0.476531 -0.0864,-0.714992 0.0022,-0.0011 0.0043,-0.0017 0.0065,-0.0028 C 14.52458,36.650087 14.35566,34.55369 14.24515,32.45577 v -2.6e-5 m 52.127166,-18.656161 2.757775,0.381064 -1.031654,7.471211 4.362017,0.602436 -0.328307,2.377564 -7.119823,-0.983061 1.360005,-9.849214 m 9.518457,1.450999 2.712495,0.625772 -1.694381,7.349348 4.291038,0.989121 -0.539407,2.339276 -7.003533,-1.614456 2.233788,-9.689061 m 6.929756,1.500481 3.001563,1.057328 0.223272,1.674691 c 0.07706,0.57932 0.133403,1.115951 0.169968,1.610716 0.03963,0.485868 0.05584,0.883474 0.04758,1.191802 0.186824,-0.245409 0.447782,-0.545259 0.783201,-0.898974 0.33858,-0.36267 0.719716,-0.745698 1.142821,-1.148867 l 1.22315,-1.165191 2.974507,1.047501 -5.54128,4.65936 -1.231556,3.496989 -2.626565,-0.925176 1.217547,-3.456807 -1.384261,-7.143372 m -65.501441,1.584446 c 0.33042,0.0028 0.638839,0.0537 0.925176,0.152254 0.387382,0.119235 0.747378,0.313881 1.079762,0.584697 0.329097,0.261937 0.653864,0.580823 0.97469,0.956894 l -2.004473,1.786316 c -0.158771,-0.183593 -0.315324,-0.347437 -0.46984,-0.492229 -0.154514,-0.144777 -0.311173,-0.253674 -0.469357,-0.326438 -0.161454,-0.08164 -0.32899,-0.125387 -0.502986,-0.131684 -0.177266,-0.01502 -0.372027,0.01645 -0.585194,0.09527 -0.266453,0.09852 -0.473152,0.250776 -0.619269,0.456258 -0.149397,0.196578 -0.247815,0.434367 -0.295646,0.714528 -0.04221,0.268018 -0.03739,0.569357 0.01538,0.903204 0.06168,0.330551 0.161883,0.681969 0.299832,1.054981 0.131403,0.355236 0.281051,0.678825 0.449288,0.969986 0.177123,0.287838 0.370757,0.523971 0.58051,0.708905 0.218623,0.18166 0.450268,0.303327 0.694942,0.364281 0.244667,0.06093 0.508802,0.03878 0.793011,-0.06632 0.204277,-0.07555 0.372646,-0.167815 0.503913,-0.276923 0.131295,-0.109112 0.239193,-0.240188 0.324124,-0.392745 0.08164,-0.161449 0.150577,-0.343359 0.206887,-0.54594 0.05305,-0.211425 0.100672,-0.451178 0.142923,-0.719196 l 2.613485,0.350727 c -0.0449,0.369982 -0.119418,0.740972 -0.224168,1.112893 -0.108041,0.363027 -0.276578,0.712834 -0.505321,1.049848 -0.219839,0.3337 -0.512194,0.64919 -0.877073,0.945699 -0.368167,0.287587 -0.828015,0.532815 -1.378667,0.736471 -0.69276,0.256215 -1.34974,0.363078 -1.971327,0.320356 -0.615983,-0.05487 -1.184691,-0.227666 -1.706509,-0.519298 -0.512935,-0.29492 -0.971158,-0.701268 -1.374467,-1.218438 -0.394421,-0.520477 -0.719859,-1.127225 -0.976081,-1.819945 -0.275934,-0.746028 -0.421801,-1.454302 -0.437603,-2.124889 -0.0068,-0.673888 0.100779,-1.283745 0.322693,-1.830206 0.227531,-0.558686 0.558022,-1.044554 0.991039,-1.457089 0.441889,-0.415833 0.977841,-0.740017 1.608441,-0.973234 0.568422,-0.210208 1.079636,-0.329085 1.534171,-0.355879 0.115053,-0.0097 0.22753,-0.01395 0.337683,-0.01324 v 2.8e-5 m 38.780971,-5.223504 7.601806,0.427788 -0.130298,2.311707 -4.878557,-0.274601 -0.07427,1.319337 2.935723,0.164846 -0.128405,2.283216 -2.935751,-0.165347 -0.09574,1.70179 4.977557,0.280217 -0.129792,2.311711 -7.701291,-0.433384 0.559036,-9.927269 m -2.814761,-0.0738 0.238153,9.940316 -2.243581,0.0537 -2.450041,-3.223783 c -0.117232,-0.148712 -0.254283,-0.329477 -0.410963,-0.543595 -0.156914,-0.223552 -0.31407,-0.442496 -0.470768,-0.65661 -0.147466,-0.223802 -0.289563,-0.433437 -0.426863,-0.629074 -0.127824,-0.195863 -0.226171,-0.34987 -0.295184,-0.461878 0.0218,0.113153 0.03974,0.273456 0.05417,0.481503 0.01433,0.198546 0.029,0.420501 0.04435,0.666408 0.01504,0.23643 0.02579,0.482756 0.03184,0.738357 l 0.01641,0.681365 0.07288,3.038817 -2.641041,0.0635 -0.238195,-9.939825 2.428542,-0.05792 2.257134,2.886581 c 0.117239,0.148747 0.254077,0.334986 0.410989,0.558545 0.166396,0.223337 0.32831,0.446595 0.485229,0.670179 0.156912,0.223552 0.299049,0.433684 0.426878,0.629511 0.127823,0.195863 0.221377,0.344647 0.280656,0.447415 C 50.83406,18.268478 50.8159,18.113219 50.80165,17.914618 50.78696,17.706593 50.77236,17.484154 50.75724,17.247717 50.74192,17.001842 50.73142,16.75096 50.72539,16.495391 L 50.70886,15.814022 50.64353,13.1016 53.285035,13.0381 m -11.615905,0.39277 1.118531,9.879131 -2.230524,0.252637 -2.72603,-2.993538 c -0.12997,-0.137765 -0.282157,-0.305939 -0.457212,-0.505303 -0.176125,-0.208777 -0.351783,-0.412885 -0.526816,-0.612258 -0.166713,-0.20985 -0.327414,-0.406227 -0.481507,-0.588903 -0.144674,-0.183772 -0.255753,-0.328406 -0.334389,-0.43387 0.03147,0.110791 0.06336,0.268554 0.0962,0.474484 0.03184,0.196542 0.06612,0.417253 0.103213,0.660842 0.03604,0.23414 0.06837,0.478229 0.09713,0.732239 l 0.07706,0.677194 0.341869,3.020614 -2.625152,0.296566 -1.118526,-9.879131 2.413596,-0.273241 2.504181,2.675517 c 0.129971,0.137765 0.282983,0.310983 0.459096,0.519767 0.185534,0.20774 0.366095,0.41608 0.542225,0.624871 0.176118,0.208777 0.33682,0.405165 0.481498,0.5889 0.144674,0.18377 0.251249,0.324113 0.31944,0.421264 -0.03147,-0.110792 -0.06351,-0.264906 -0.09527,-0.461413 -0.03292,-0.205951 -0.06719,-0.425713 -0.103214,-0.65989 -0.03711,-0.243585 -0.06976,-0.49225 -0.09856,-0.746296 l -0.07658,-0.677634 -0.305452,-2.695579 2.625155,-0.296995 M 26.77001,15.551067 c 0.312711,-0.01252 0.618271,0.0057 0.915832,0.05463 0.60228,0.08675 1.145262,0.298284 1.629458,0.635135 0.49134,0.325544 0.919363,0.777083 1.2834,1.354796 0.36193,0.56851 0.633719,1.254704 0.815896,2.05813 0.182169,0.803448 0.233364,1.544283 0.154121,2.222511 -0.08135,0.668978 -0.271787,1.260711 -0.572568,1.775567 -0.3008,0.514826 -0.703423,0.945864 -1.207281,1.293136 -0.503844,0.347257 -1.083976,0.595291 -1.739672,0.743953 -0.655691,0.148677 -1.284517,0.179691 -1.886783,0.09294 -0.595128,-0.09809 -1.138115,-0.310052 -1.629458,-0.635593 -0.493431,-0.334737 -0.921453,-0.786778 -1.283395,-1.355258 -0.354783,-0.57981 -0.622971,-1.271031 -0.805143,-2.074478 -0.182168,-0.803424 -0.232683,-1.539483 -0.151329,-2.208489 0.07928,-0.678199 0.268994,-1.274737 0.569789,-1.789567 0.300798,-0.514848 0.703401,-0.945886 1.207261,-1.293137 0.503844,-0.347258 1.083975,-0.595315 1.739671,-0.743947 0.327844,-0.07434 0.647507,-0.117662 0.960212,-0.13029 v -2.9e-5 m -0.06254,2.432804 c -0.127037,-0.001 -0.258404,0.01395 -0.394639,0.04482 -0.544872,0.123564 -0.915111,0.440095 -1.110125,0.950364 -0.185781,0.508191 -0.179341,1.201351 0.01968,2.078682 0.198946,0.877301 0.497637,1.508667 0.895759,1.894179 0.407376,0.383411 0.883297,0.513027 1.428165,0.389471 0.544882,-0.123528 0.91033,-0.439387 1.096122,-0.947556 0.19501,-0.510265 0.19333,-1.203698 -0.0057,-2.081001 -0.198946,-0.877299 -0.50241,-1.507521 -0.909772,-1.890905 -0.298581,-0.289124 -0.638378,-0.435265 -1.019509,-0.438047 v 0 m 7.549081,58.407528 C 37.191191,83.124328 40.060187,89.85678 42.864782,96.5896 39.500147,93.67462 36.420481,90.42694 33.658711,86.939318 31.18069,83.710681 28.943958,80.315755 26.939127,76.792597 L 34.25651,76.391416 M 50.2363,91.74345 c 4.403596,0.9673 8.507632,2.18381 12.979141,2.58958 -3.479757,3.29816 -7.289454,6.24794 -11.421615,8.75083 -0.0014,0 -0.0036,-0.003 -0.0057,-0.004 -5.6e-4,0 -0.0014,0 -0.0014,0 -2.221337,-1.33287 -4.352562,-2.8076 -6.38986,-4.40296 -0.533528,-1.2494 -1.063332,-2.49883 -1.598165,-3.74824 l 6.437693,-3.18584 M 36.83814,25.987167 C 26.487309,31.052453 20.39555,37.567266 25.236252,47.804018 L 23.545614,49.1742 c -2.683072,-5.793839 -5.423212,-11.587329 -8.234996,-17.381176 6.830395,-3.080002 14.120697,-4.845115 21.5276,-5.805852 m -19.732363,25.941923 6.321222,0.225559 c 3.535414,7.724567 6.992045,15.448944 10.366596,23.173517 l -3.15758,0.171392 C 28.313578,71.019217 24.848091,68.236268 22.220277,67.277848 21.273013,65.061829 20.40679,62.810497 19.625474,60.52909 19.395403,59.857296 19.17282,59.183134 18.95716,58.50646 c -0.0027,-0.0082 -0.0057,-0.01611 -0.0086,-0.02433 -0.43273,-1.358912 -0.836723,-2.727049 -1.211465,-4.103621 -9.24e-4,-0.0038 -0.0016,-0.0082 -0.0028,-0.01215 -0.178482,-0.655905 -0.350275,-1.313662 -0.51561,-1.973111 -0.01432,-0.05764 -0.02898,-0.115157 -0.04343,-0.172788 -0.02397,-0.09691 -0.04576,-0.194429 -0.06959,-0.291416 v -2.8e-5 m 55.794779,14.746796 c 0.786257,-0.03507 1.652991,0.108757 2.771795,0.54968 1.907109,0.751554 4.022931,0.124424 6.118521,-0.06356 -0.986338,2.311633 -2.073181,4.584394 -3.255174,6.807612 -12.876067,-1.48203 -25.090406,-3.544414 -31.860114,10.799637 -0.173402,0.843074 -1.05209,1.787683 -1.636916,2.054834 -3.002123,3.416315 -0.7933,5.769955 -0.508598,6.505445 l -1.143282,0.65707 C 40.500649,87.248199 37.771712,80.919466 34.8088,74.181094 c 0.304585,-0.764472 1.538182,-1.993599 5.542676,-4.607979 0,0 2.283239,0.860896 3.482145,1.023209 1.21156,0.164058 1.779644,0.418668 3.667564,-0.06114 1.179624,-0.299859 1.725019,0.398287 2.499997,0.179293 4.689828,-1.325232 8.178088,-1.959979 12.323897,-1.620998 1.75355,0.143381 1.813947,-0.01 3.880065,-1.440727 1.474857,-1.021386 3.599875,-0.271231 5.329706,-0.746728 0.451061,-0.123999 0.89385,-0.209251 1.365594,-0.230248 m 16.90871,-34.617138 0.277407,0.05277 c -0.31436,5.323888 -1.093752,10.619832 -2.246866,15.8349 -33.153378,-8.891368 -35.149536,-2.604645 -42.512542,1.068048 -5.104021,4.845553 -12.764987,5.916718 -9.049101,22.101726 l -2.041838,1.76157 C 30.937443,65.392004 27.578383,57.906615 24.122297,50.42102 l 4.656717,-4.731281 c 3.37403,1.22777 7.244694,0.809513 10.571161,-0.359143 1.063546,-0.373643 1.62148,-0.327691 2.432283,-0.246089 2.167925,0.218114 4.380471,-0.122562 6.182495,-1.1993 1.051495,-0.628264 1.665114,-0.629759 2.476183,-0.421702 1.274053,0.326863 2.007187,-0.279576 2.823633,-0.821931 2.024333,-1.344746 3.707383,-0.80817 5.531951,-0.49408 8.722522,1.501493 20.411831,-5.510438 31.012442,-10.088818 v -2.8e-5"
       id="path1304" /><text
       xml:space="preserve"
       style="font-style:normal;font-variant:normal;font-weight:bold;font-stretch:normal;font-size:35.9062px;font-family:Ubuntu;-inkscape-font-specification:'Ubuntu, Bold';font-variant-ligatures:normal;font-variant-caps:normal;font-variant-numeric:normal;font-variant-east-asian:normal;text-align:start;writing-mode:lr-tb;direction:ltr;text-anchor:start;fill:#dba507;fill-opacity:1;stroke:none;stroke-width:1.22408"
       x="209.69958"
       y="49.537781"
       id="text1"><tspan
         sodipodi:role="line"
         id="tspan1"
         style="font-style:normal;font-variant:normal;font-weight:bold;font-stretch:normal;font-size:35.9062px;font-family:Ubuntu;-inkscape-font-specification:'Ubuntu, Bold';font-variant-ligatures:normal;font-variant-caps:normal;font-variant-numeric:normal;font-variant-east-asian:normal;text-align:center;text-anchor:middle;fill:#dba507;fill-opacity:1;stroke-width:1.22408"
         x="209.69958"
         y="49.537781">CONNELLY</tspan><tspan
         sodipodi:role="line"
         style="font-style:normal;font-variant:normal;font-weight:bold;font-stretch:normal;font-size:35.9062px;font-family:Ubuntu;-inkscape-font-specification:'Ubuntu, Bold';font-variant-ligatures:normal;font-variant-caps:normal;font-variant-numeric:normal;font-variant-east-asian:normal;text-align:center;text-anchor:middle;fill:#dba507;fill-opacity:1;stroke-width:1.22408"
         x="209.69958"
         y="94.420532"
         id="tspan2">CREATIONS</tspan></text><text
       xml:space="preserve"
       style="font-style:normal;font-variant:normal;font-weight:bold;font-stretch:normal;font-size:25.4204px;font-family:Ubuntu;-inkscape-font-specification:'Ubuntu, Bold';font-variant-ligatures:normal;font-variant-caps:normal;font-variant-numeric:normal;font-variant-east-asian:normal;text-align:start;writing-mode:lr-tb;direction:ltr;text-anchor:start;fill:#8ec7d2;fill-opacity:1;stroke:none;stroke-width:0.866606"
       x="158.62289"
       y="151.32527"
       id="text1-2"><tspan
         sodipodi:role="line"
         style="font-style:normal;font-variant:normal;font-weight:bold;font-stretch:normal;font-size:25.4204px;font-family:Ubuntu;-inkscape-font-specification:'Ubuntu, Bold';font-variant-ligatures:normal;font-variant-caps:normal;font-variant-numeric:normal;font-variant-east-asian:normal;text-align:center;text-anchor:middle;fill:#8ec7d2;fill-opacity:1;stroke-width:0.866606"
         x="158.62289"
         y="151.32527"
         id="tspan4">Design &amp; Laser Engraving</tspan></text></g></svg>
