<?xml version="1.0" encoding="UTF-8" standalone="no"?>
<!-- Created with Inkscape (http://www.inkscape.org/) -->

<svg
   width="1.0416673in"
   height="1.1914992in"
   viewBox="0 0 26.458351 30.264081"
   version="1.1"
   id="svg970"
   xml:space="preserve"
   inkscape:version="1.4.2 (ebf0e940d0, 2025-05-08)"
   sodipodi:docname="logo.svg"
   xmlns:inkscape="http://www.inkscape.org/namespaces/inkscape"
   xmlns:sodipodi="http://sodipodi.sourceforge.net/DTD/sodipodi-0.dtd"
   xmlns="http://www.w3.org/2000/svg"
   xmlns:svg="http://www.w3.org/2000/svg"><sodipodi:namedview
     id="namedview972"
     pagecolor="#ffffff"
     bordercolor="#666666"
     borderopacity="1.0"
     inkscape:showpageshadow="2"
     inkscape:pageopacity="0.0"
     inkscape:pagecheckerboard="0"
     inkscape:deskcolor="#d1d1d1"
     inkscape:document-units="mm"
     showgrid="false"
     inkscape:zoom="1.1496122"
     inkscape:cx="-66.109252"
     inkscape:cy="7.8287272"
     inkscape:window-width="2048"
     inkscape:window-height="1041"
     inkscape:window-x="1080"
     inkscape:window-y="0"
     inkscape:window-maximized="1"
     inkscape:current-layer="layer1" /><defs
     id="defs967" /><g
     inkscape:label="Layer 1"
     inkscape:groupmode="layer"
     id="layer1"
     transform="translate(-25.399985,-3.4788991)"><path
       style="fill:#000000;fill-rule:evenodd;stroke:#000000;stroke-width:0.00434019mm"
       d="m 38.509142,3.4871201 c -0.06879,1.562e-4 -0.137527,0.00121 -0.206294,0.00177 -4.766052,0.03675 -9.472796,0.9680588 -12.783395,2.7632516 -0.0104,0.095146 -0.02012,0.1929717 -0.02918,0.2929732 -0.0089,0.0982 -0.01714,0.1988911 -0.0247,0.3016291 -0.0011,0.014652 -0.0019,0.029889 -0.0029,0.04464 -0.0066,0.092722 -0.01275,0.1868931 -0.0182,0.2831377 -0.0061,0.1081151 -0.01155,0.2185365 -0.01618,0.3309651 -5.5e-5,0.00133 -8.7e-5,0.00243 -1.48e-4,0.00376 9e-6,2.517e-4 -4e-6,4.774e-4 0,7.291e-4 C 25.161922,14.00912 27.456959,27.572277 38.524758,33.733593 49.675421,27.526146 52.112817,13.805787 51.828664,7.3653766 c -9e-6,-2.344e-4 8e-6,-3.993e-4 0,-7.118e-4 -3.48e-4,-0.00664 -8.68e-4,-0.013026 -0.0012,-0.019642 -0.0042,-0.093121 -0.0087,-0.185053 -0.014,-0.2750596 -0.0054,-0.092368 -0.01146,-0.1834571 -0.01805,-0.2724501 -0.0025,-0.034349 -0.0054,-0.067304 -0.0081,-0.1011215 -0.005,-0.061538 -0.0098,-0.1235057 -0.0153,-0.1833222 -0.0081,-0.089015 -0.01671,-0.1760184 -0.026,-0.2610355 C 51.125328,5.915428 50.455446,5.6092 49.745357,5.3335507 49.508654,5.2416583 49.267619,5.1532517 49.022302,5.0681749 48.776977,4.9830883 48.527399,4.9014266 48.274112,4.823163 45.487908,3.962249 42.239362,3.5141775 38.962677,3.4889258 c -0.109912,-8.507e-4 -0.219861,-0.00145 -0.329811,-0.00133 -0.04121,-4.2e-5 -0.08247,-4.948e-4 -0.12367,-4.948e-4 v 5.1e-5 m -11.599742,6.757602 c 0.915147,1.929328 1.815389,3.858639 2.700075,5.787978 l -0.679858,0.0024 c -0.07727,-1.635671 -0.813022,-2.411551 -1.746309,-2.929672 -0.02795,-0.197801 -0.0537,-0.395771 -0.07801,-0.594027 -0.0041,-0.03353 -0.008,-0.06715 -0.01198,-0.10069 -0.0089,-0.0737 -0.01843,-0.147406 -0.02673,-0.22117 6.69e-4,-3.47e-4 0.0013,-5.21e-4 0.002,-8.68e-4 -0.07276,-0.646574 -0.125014,-1.295056 -0.159199,-1.94401 v -8e-6 M 43.034052,4.4737936 43.887119,4.5916688 43.567995,6.9027537 44.917309,7.0891066 44.815751,7.824563 42.613363,7.5204707 43.034055,4.4737936 m 2.944364,0.4488405 0.839061,0.1935714 -0.524124,2.2733883 1.327354,0.305967 -0.166856,0.723613 -2.166416,-0.4994031 0.690981,-2.9971366 m 2.143594,0.464147 0.928479,0.3270654 0.06907,0.5180354 c 0.02384,0.1792022 0.04127,0.3451994 0.05258,0.4982461 0.01228,0.1502944 0.01727,0.2732867 0.01473,0.3686626 0.05779,-0.075913 0.138514,-0.1686662 0.242268,-0.2780817 0.104733,-0.1121852 0.222629,-0.2306682 0.35351,-0.3553813 L 50.161005,6.1048971 51.081117,6.4289226 49.367022,7.8702116 48.986063,8.951942 48.17358,8.6657554 48.550208,7.5964544 48.122012,5.3867811 M 27.860313,5.8769017 c 0.10221,8.507e-4 0.197614,0.01661 0.286187,0.047097 0.11983,0.036883 0.231188,0.097093 0.334005,0.1808655 0.1018,0.081025 0.202261,0.179667 0.301502,0.2959976 L 28.16196,6.9534267 C 28.11285,6.8966357 28.06442,6.8459532 28.016623,6.8011646 27.968823,6.7563806 27.920373,6.7226956 27.871436,6.700187 27.821496,6.674934 27.769669,6.661401 27.715847,6.659453 c -0.05484,-0.00465 -0.11508,0.00509 -0.181019,0.029469 -0.08242,0.030476 -0.146362,0.077573 -0.19156,0.1411352 -0.04621,0.060808 -0.07666,0.1343636 -0.09145,0.2210263 -0.01306,0.082907 -0.01157,0.1761202 0.0048,0.2793897 0.01908,0.1022501 0.05008,0.210955 0.09275,0.3263394 0.04065,0.1098857 0.08694,0.2099825 0.138979,0.3000479 0.05479,0.089038 0.114687,0.1620809 0.179571,0.2192866 0.06763,0.056194 0.139282,0.093829 0.214967,0.112684 0.07568,0.018845 0.157389,0.011996 0.245304,-0.020517 0.06319,-0.023371 0.115271,-0.051911 0.155876,-0.085661 0.04061,-0.033752 0.07399,-0.074298 0.100262,-0.1214887 0.02525,-0.049941 0.04658,-0.1062119 0.064,-0.1688766 0.01641,-0.0654 0.03114,-0.1395637 0.04421,-0.2224703 l 0.808434,0.1084912 c -0.01389,0.1144471 -0.03694,0.2292063 -0.06934,0.3442532 -0.03342,0.112296 -0.08555,0.2205026 -0.156312,0.3247518 -0.068,0.1032239 -0.158438,0.2008151 -0.271307,0.2925347 -0.113886,0.08896 -0.256131,0.1648168 -0.426465,0.2278142 -0.214293,0.079255 -0.417518,0.1123116 -0.609795,0.099096 C 27.577209,9.0497836 27.401289,8.9963346 27.239874,8.9061232 27.081207,8.8148952 26.939464,8.6891987 26.814708,8.5292212 26.6927,8.3682212 26.592032,8.1805346 26.512775,7.9662539 26.427415,7.7354838 26.382298,7.516392 26.37741,7.308958 26.37531,7.1005028 26.40858,6.9118546 26.47723,6.7428166 26.54761,6.5699972 26.649844,6.4197026 26.78379,6.2920924 26.920481,6.163462 27.086268,6.0631815 27.281333,5.99104 c 0.175831,-0.065024 0.333966,-0.1017965 0.474568,-0.1100851 0.03559,-0.00299 0.07038,-0.00432 0.104456,-0.00409 v 8.9e-6 m 11.996193,-1.615797 2.351483,0.1323288 -0.0403,0.7150848 -1.509096,-0.084943 -0.02297,0.4081131 0.908113,0.050992 -0.03972,0.7062718 -0.908122,-0.051147 -0.02961,0.5264178 1.539717,0.08668 -0.04015,0.715086 -2.382256,-0.1340594 0.172927,-3.0708221 m -0.870695,-0.022829 0.07367,3.0748579 -0.694011,0.01661 -0.757875,-0.9972189 c -0.03626,-0.046002 -0.07866,-0.1019181 -0.127123,-0.1681517 -0.04854,-0.069152 -0.09715,-0.136878 -0.145624,-0.2031104 -0.04562,-0.069229 -0.08957,-0.1340761 -0.132042,-0.1945929 -0.03954,-0.060586 -0.06996,-0.1082258 -0.09131,-0.1428735 0.0067,0.035002 0.01229,0.084589 0.01676,0.1489444 0.0044,0.061416 0.009,0.1300745 0.01372,0.2061414 0.0047,0.073135 0.008,0.1493316 0.0098,0.2283974 l 0.0051,0.2107679 0.02255,0.9400032 -0.816959,0.019642 -0.07368,-3.0747062 0.751226,-0.017916 0.698203,0.8929118 c 0.03627,0.046012 0.07859,0.1036222 0.127132,0.1727761 0.05147,0.069085 0.101557,0.1381461 0.150098,0.2073077 0.04854,0.069152 0.0925,0.1341525 0.132046,0.1947278 0.03954,0.060587 0.06848,0.1066103 0.08682,0.1383997 -0.0067,-0.035002 -0.01236,-0.083029 -0.01676,-0.1444616 -0.0045,-0.064349 -0.0091,-0.1331565 -0.01374,-0.2062941 -0.0047,-0.076057 -0.008,-0.1536629 -0.0098,-0.2327187 l -0.0051,-0.2107691 -0.02022,-0.8390389 0.817101,-0.019642 m -3.59317,0.1214963 0.345998,3.0559317 -0.689973,0.078148 L 34.20546,6.5678231 C 34.16526,6.5252081 34.11818,6.4731861 34.06403,6.4115166 34.00955,6.3469346 33.955212,6.2837979 33.901069,6.2221258 33.849499,6.1572128 33.799789,6.0964666 33.752123,6.039959 c -0.04475,-0.056846 -0.07911,-0.1015862 -0.103437,-0.13421 0.0097,0.034272 0.0196,0.083073 0.02976,0.1467733 0.0098,0.060797 0.02045,0.1290697 0.03193,0.2044194 0.01115,0.072427 0.02115,0.1479318 0.03005,0.2265051 l 0.02384,0.2094779 0.10575,0.9343727 -0.812043,0.091737 -0.345996,-3.0559315 0.746603,-0.084523 0.774623,0.8276232 c 0.0402,0.042615 0.08754,0.096197 0.142013,0.1607806 0.05739,0.06426 0.113245,0.1287067 0.167728,0.1932926 0.05448,0.064581 0.104189,0.1253306 0.148942,0.1821658 0.04475,0.056846 0.07772,0.1002582 0.09881,0.1303103 -0.0097,-0.034272 -0.01964,-0.081944 -0.02947,-0.1427298 -0.01018,-0.063707 -0.02078,-0.1316869 -0.03193,-0.2041251 -0.01148,-0.075349 -0.02158,-0.1522687 -0.03049,-0.2308531 l -0.02369,-0.2096115 -0.09449,-0.8338289 0.812045,-0.09187 m -4.608763,0.6558527 c 0.09673,-0.00387 0.191251,0.00177 0.283296,0.016898 0.186305,0.026835 0.354267,0.092269 0.504044,0.1964676 0.151987,0.1007008 0.284388,0.2403764 0.396996,0.4190816 0.111957,0.1758581 0.19603,0.3881202 0.252383,0.6366456 0.05635,0.248532 0.07219,0.4776962 0.04767,0.6874938 -0.02517,0.206936 -0.08407,0.3899782 -0.177114,0.5492395 -0.09305,0.1592523 -0.217591,0.2925858 -0.37345,0.4000082 -0.155856,0.107418 -0.335309,0.1841425 -0.538137,0.2301286 -0.202826,0.04599 -0.397342,0.055584 -0.583642,0.028749 C 30.411768,8.1499524 30.243805,8.0843865 30.091816,7.9836862 29.939183,7.8801414 29.806782,7.740311 29.694822,7.5644617 29.585076,7.3851078 29.502116,7.1712912 29.445765,6.9227591 29.389415,6.6742346 29.373789,6.4465478 29.398954,6.239603 c 0.02452,-0.2097887 0.08321,-0.3943171 0.176254,-0.5535706 0.09305,-0.159259 0.217585,-0.2925926 0.373444,-0.4000084 0.155855,-0.107418 0.335309,-0.1841499 0.538136,-0.2301269 0.101413,-0.022995 0.200295,-0.036396 0.297024,-0.040303 v -8.7e-6 m -0.01935,0.7525437 c -0.0393,-3.298e-4 -0.07993,0.00432 -0.122074,0.013866 -0.168547,0.038222 -0.283073,0.1361354 -0.343397,0.293978 -0.05747,0.1571997 -0.05548,0.3716163 0.0061,0.6430029 0.06154,0.2713769 0.153935,0.466679 0.277086,0.5859299 0.126015,0.1186014 0.273233,0.1586959 0.441778,0.1204759 0.168549,-0.038211 0.281594,-0.1359163 0.339065,-0.2931092 0.06032,-0.1578415 0.0598,-0.3723422 -0.0018,-0.6437201 C 31.299699,6.2171761 31.205828,6.022228 31.079818,5.9036355 30.987457,5.8141998 30.882347,5.768994 30.764451,5.7681332 v 0 M 33.099627,23.83545 c 0.907781,2.082704 1.795253,4.165266 2.662804,6.247944 -1.040778,-0.901698 -1.993417,-1.906309 -2.84772,-2.985142 -0.766532,-0.998721 -1.458424,-2.048881 -2.078583,-3.138705 l 2.263499,-0.124097 m 4.943061,4.748875 c 1.362172,0.299215 2.631683,0.675524 4.014863,0.801039 -1.076399,1.020225 -2.254861,1.932689 -3.53307,2.706914 -5.21e-4,0 -0.0012,-8.68e-4 -0.0018,-9.99e-4 -1.74e-4,0 -3.47e-4,0 -5.21e-4,0 -0.68713,-0.412301 -1.346386,-0.868481 -1.976587,-1.36198 -0.165038,-0.386479 -0.328923,-0.772967 -0.494364,-1.15945 l 1.991387,-0.985525 M 33.898189,8.2437945 C 30.696346,9.8106495 28.81197,11.82589 30.309354,14.992444 l -0.522968,0.423842 c -0.82996,-1.79222 -1.677574,-3.584332 -2.547348,-5.376554 2.11286,-0.9527431 4.367983,-1.4987492 6.659175,-1.7959358 m -6.103851,8.0246668 1.955356,0.06977 c 1.093617,2.389456 2.162863,4.778853 3.20672,7.16831 l -0.97674,0.05302 C 31.261269,22.173649 30.189283,21.312795 29.376416,21.016326 29.083397,20.330839 28.815447,19.63443 28.573761,18.928717 28.502591,18.72091 28.43374,18.51237 28.36703,18.303053 c -8.16e-4,-0.0025 -0.0018,-0.005 -0.0027,-0.0075 -0.133858,-0.420355 -0.258825,-0.843563 -0.374745,-1.269381 -2.95e-4,-0.0012 -5.12e-4,-0.0025 -8.68e-4,-0.0038 -0.05521,-0.202892 -0.108352,-0.406357 -0.159495,-0.610346 -0.0044,-0.01783 -0.009,-0.03562 -0.01344,-0.05345 -0.0074,-0.02998 -0.01415,-0.06014 -0.02152,-0.09014 v -9e-6 m 17.259108,4.561657 c 0.243213,-0.01085 0.511324,0.03364 0.857405,0.170033 0.589929,0.23248 1.244419,0.03849 1.892654,-0.01965 -0.305107,0.715059 -0.641302,1.418097 -1.006929,2.10581 -3.982981,-0.458439 -7.761266,-1.096402 -9.855351,3.340673 -0.05364,0.260791 -0.325445,0.552989 -0.506351,0.635625 -0.928652,1.056775 -0.245393,1.78483 -0.157325,2.012344 l -0.353654,0.203251 c -0.89274,-2.084381 -1.736888,-4.04206 -2.653411,-6.126454 0.09422,-0.236476 0.475809,-0.616683 1.714527,-1.425395 0,0 0.706278,0.266304 1.077139,0.316512 0.374774,0.05075 0.5505,0.129508 1.134494,-0.01891 0.364896,-0.09276 0.533603,0.123202 0.773328,0.05546 1.450713,-0.409936 2.529744,-0.606284 3.812176,-0.501428 0.542428,0.04435 0.561111,-0.0031 1.200227,-0.445662 0.456219,-0.315946 1.113557,-0.0839 1.648648,-0.230988 0.139527,-0.03836 0.276495,-0.06473 0.422423,-0.07122 m 5.230404,-10.70819 0.08581,0.01632 c -0.09724,1.646849 -0.338333,3.285054 -0.695026,4.898241 -10.255399,-2.750384 -10.872874,-0.8057 -13.150487,0.330382 -1.578837,1.498885 -3.948619,1.83023 -2.799176,6.836773 l -0.631606,0.544908 c -1.02042,-2.315558 -2.059485,-4.631028 -3.128563,-6.946562 l 1.440472,-1.463537 c 1.043695,0.379789 2.241015,0.250408 3.269998,-0.111094 0.328989,-0.11558 0.501575,-0.101366 0.752383,-0.07612 0.670608,0.06747 1.35502,-0.03791 1.912443,-0.370982 0.325261,-0.194342 0.515074,-0.194805 0.765963,-0.130446 0.394105,0.101109 0.620887,-0.08648 0.873439,-0.254249 0.626192,-0.415974 1.146813,-0.249994 1.711209,-0.152836 2.698155,0.464461 6.314032,-1.704554 9.59314,-3.120794 v -8e-6"
       id="path1304" /></g></svg>
